<svg width="45" height="45" viewBox="0 0 45 45" fill="none" xmlns="http://www.w3.org/2000/svg">
<path d="M17.1968 13.3618H30.7023" stroke="#333333" stroke-width="1.5" stroke-linecap="round" stroke-linejoin="round"/>
<path d="M13.5527 13.3618H14.0527" stroke="#333333" stroke-width="1.5" stroke-linecap="round" stroke-linejoin="round"/>
<path d="M17.1968 18.1104H23.3133" stroke="#333333" stroke-width="1.5" stroke-linecap="round" stroke-linejoin="round"/>
<path d="M13.5527 18.1104H14.0527" stroke="#333333" stroke-width="1.5" stroke-linecap="round" stroke-linejoin="round"/>
<path d="M36.9829 15.7034V8.94775C36.9829 7.2909 35.6398 5.94775 33.9829 5.94775H11.2637C9.60682 5.94775 8.26367 7.2909 8.26367 8.94775V35.3799C8.26367 37.0367 9.60681 38.3799 11.2637 38.3799H27.6224" stroke="#333333" stroke-width="1.5" stroke-linecap="round"/>
<path d="M31.9412 21.7182C31.7141 21.5567 31.4749 21.4129 31.2256 21.2883L29.5704 20.4607C28.6099 19.9807 27.4629 20.0707 26.589 20.6945L24.0053 22.5402C23.1958 23.121 22.6586 24.0073 22.5181 24.9937L22.1274 27.7356" stroke="#333333" stroke-width="1.5" stroke-linecap="round" stroke-linejoin="round"/>
<path d="M42.1874 37.3297L34.6885 25.3369" stroke="#333333" stroke-width="1.5" stroke-linecap="round" stroke-linejoin="round"/>
<path d="M28.8301 28.9278L36.6315 24.1483C37.3202 23.7263 37.7314 22.9689 37.7103 22.1615C37.6892 21.3541 37.2389 20.6193 36.5291 20.2339C35.8193 19.8485 34.9578 19.8711 34.2691 20.2931L20.138 28.9544L17.4619 33.2437L22.5032 32.8082L25.3838 31.0283" stroke="#333333" stroke-width="1.5" stroke-linecap="round" stroke-linejoin="round"/>
<path d="M32.7416 28.9272H27.4902C26.3301 28.9272 25.3896 29.8677 25.3896 31.0278V31.0278C25.3896 32.1879 26.3301 33.1283 27.4902 33.1283H31.33L33.7919 38.3797" stroke="#333333" stroke-width="1.5" stroke-linecap="round" stroke-linejoin="round"/>
</svg>