<svg width="45" height="45" viewBox="0 0 45 45" fill="none" xmlns="http://www.w3.org/2000/svg">
<path d="M8.26465 38.3501H36.9839" stroke="#333333" stroke-width="1.5" stroke-linecap="round" stroke-linejoin="round"/>
<path fill-rule="evenodd" clip-rule="evenodd" d="M31.9267 38.3501H13.3223L10.9038 27.8571C10.7962 27.3975 10.8904 26.9156 11.1641 26.5246C11.4136 26.1569 11.8364 25.9314 12.2934 25.9224H32.9555C33.4125 25.9314 33.8353 26.1569 34.0848 26.5246C34.3585 26.9156 34.4527 27.3975 34.3451 27.8571L31.9267 38.3501Z" stroke="#333333" stroke-width="1.5" stroke-linecap="round" stroke-linejoin="round"/>
<path fill-rule="evenodd" clip-rule="evenodd" d="M22.6241 33.8334C23.9234 33.8334 24.9767 32.8222 24.9767 31.5749C24.9767 30.3276 23.9234 29.3164 22.6241 29.3164C21.3248 29.3164 20.2715 30.3276 20.2715 31.5749C20.2715 32.8222 21.3248 33.8334 22.6241 33.8334Z" stroke="#333333" stroke-width="1.5" stroke-linecap="round" stroke-linejoin="round"/>
<path d="M17.0483 7.53027C19.073 9.54544 21.8642 10.6836 24.7806 10.6831C26.2437 10.6841 27.6917 10.3982 29.0356 9.84298" stroke="#333333" stroke-width="1.5" stroke-linecap="round" stroke-linejoin="round"/>
<path fill-rule="evenodd" clip-rule="evenodd" d="M22.624 16.8944C26.197 16.8944 29.0936 14.1137 29.0936 10.6835C29.0936 7.25336 26.197 4.47266 22.624 4.47266C19.0509 4.47266 16.1543 7.25336 16.1543 10.6835C16.1543 14.1137 19.0509 16.8944 22.624 16.8944Z" stroke="#333333" stroke-width="1.5" stroke-linecap="round" stroke-linejoin="round"/>
<path d="M30.4662 22.5407C28.4788 20.3842 25.6235 19.1494 22.6242 19.1494C19.6249 19.1494 16.7696 20.3842 14.7822 22.5407" stroke="#333333" stroke-width="1.5" stroke-linecap="round" stroke-linejoin="round"/>
</svg>