<svg width="45" height="45" viewBox="0 0 45 45" fill="none" xmlns="http://www.w3.org/2000/svg">
<path d="M21.1963 21.9598L27.2357 15.9204" stroke="#333333" stroke-width="1.5" stroke-linecap="round" stroke-linejoin="round"/>
<path fill-rule="evenodd" clip-rule="evenodd" d="M27.2358 15.9202L28.0591 10.4852L32.7665 5.85889L33.4941 9.66194L37.2971 10.3895L32.6708 15.0969L27.2358 15.9202V15.9202Z" stroke="#333333" stroke-width="1.5" stroke-linecap="round" stroke-linejoin="round"/>
<path d="M35.746 18.5597C37.3225 24.536 34.8322 30.8433 29.5982 34.1307C24.3642 37.418 17.6012 36.9224 12.9023 32.9071C8.2035 28.8919 6.65935 22.2888 9.0903 16.6062C11.5213 10.9237 17.3632 7.4803 23.5122 8.10565" stroke="#333333" stroke-width="1.5" stroke-linecap="round" stroke-linejoin="round"/>
<path d="M29.4663 20.3332C30.2479 23.4846 28.9441 26.7847 26.2197 28.551C23.4953 30.3172 19.9504 30.1606 17.3924 28.1609C14.8345 26.1611 13.8269 22.7588 14.8834 19.6887C15.9399 16.6185 18.8279 14.5568 22.0747 14.5547" stroke="#333333" stroke-width="1.5" stroke-linecap="round" stroke-linejoin="round"/>
<path d="M14.6744 34.1211L13.5874 38.4691" stroke="#333333" stroke-width="1.5" stroke-linecap="round" stroke-linejoin="round"/>
<path d="M29.8926 34.1211L30.9796 38.4691" stroke="#333333" stroke-width="1.5" stroke-linecap="round" stroke-linejoin="round"/>
</svg>