<svg width="50" height="51" viewBox="0 0 50 51" fill="none" xmlns="http://www.w3.org/2000/svg">
<path d="M25 50.644C38.8073 50.644 50 39.4513 50 25.644C50 11.8368 38.8073 0.644043 25 0.644043C11.1927 0.644043 0 11.8368 0 25.644C0 39.4513 11.1927 50.644 25 50.644Z" fill="#D6001C"/>
<path d="M14.0662 13.644V22.1349C15.3753 20.5936 16.9445 19.8177 18.7643 19.8177C19.7016 19.8177 20.541 19.9945 21.294 20.345C22.0491 20.6934 22.6136 21.1407 22.9948 21.6836C23.3781 22.2317 23.6372 22.8318 23.7773 23.4932C23.9163 24.1516 23.9858 25.176 23.9858 26.5655V35.644H19.9186V27.4672C19.9186 25.8448 19.8448 24.8172 19.69 24.3804C19.545 23.9525 19.2572 23.5858 18.8738 23.3403C18.4821 23.0793 17.9945 22.9503 17.4057 22.9503C16.7317 22.9503 16.1272 23.1167 15.6017 23.4475C15.0646 23.7803 14.6791 24.2774 14.4348 24.942C14.1863 25.6076 14.062 26.5905 14.0662 27.8916L14.062 35.644H10V13.644H14.0673" fill="#FEFEFE"/>
<path d="M30.0815 13.644V22.1349C31.3916 20.5936 32.9598 19.8177 34.7786 19.8177C35.7127 19.8177 36.5584 19.9945 37.3124 20.345C38.0644 20.6934 38.6289 21.1407 39.008 21.6836C39.3906 22.228 39.6569 22.8438 39.7905 23.4932C39.9306 24.1516 40.0001 25.176 40.0001 26.5655V35.644H35.937V27.4672C35.937 25.8448 35.8602 24.8172 35.7053 24.3804C35.5603 23.9519 35.2716 23.585 34.887 23.3403C34.4995 23.0793 34.0077 22.9503 33.419 22.9503C32.746 22.9503 32.1415 23.1167 31.6149 23.4475C31.0852 23.7803 30.6976 24.2774 30.4501 24.942C30.2058 25.6076 30.0815 26.5905 30.0815 27.8916V35.644H26.0195V13.644H30.0815Z" fill="#FEFEFE"/>
</svg>