<svg width="45" height="45" viewBox="0 0 45 45" fill="none" xmlns="http://www.w3.org/2000/svg">
<path d="M8.36426 29.6339V10.8494C8.36426 9.60357 9.27689 8.59521 10.4014 8.59521H34.847C35.9715 8.59521 36.8841 9.60357 36.8841 10.8494V29.6339" stroke="#333333" stroke-width="1.5" stroke-miterlimit="10" stroke-linecap="round" stroke-linejoin="round"/>
<path d="M26.0196 29.6333V31.1154H19.2291V29.6333H7.00635V33.1331C7.00635 34.0991 7.61477 34.883 8.36444 34.883H36.8843C37.6353 34.883 38.2424 34.0991 38.2424 33.1331V29.6333H26.0196Z" stroke="#333333" stroke-width="1.5" stroke-miterlimit="10" stroke-linecap="round" stroke-linejoin="round"/>
<path d="M22.6283 13.3735H22.6188C21.5568 14.733 19.5618 15.3129 17.1919 13.656V21.704C17.1919 21.704 17.9796 24.5655 22.6242 25.8679C27.2689 24.5655 28.0566 21.704 28.0566 21.704V13.656C25.7153 15.2912 23.7094 14.752 22.6283 13.3735Z" stroke="#333333" stroke-width="1.5" stroke-miterlimit="10" stroke-linecap="round" stroke-linejoin="round"/>
<path d="M20.0186 19.1938L22.1542 21.3291L25.5707 17.9126" stroke="#333333" stroke-width="1.5" stroke-linecap="round"/>
</svg>