<svg width="45" height="45" viewBox="0 0 45 45" fill="none" xmlns="http://www.w3.org/2000/svg">
<path d="M30.5575 13.625V38.0307C30.5575 38.6566 30.0501 39.164 29.4242 39.164H11.291C10.6651 39.164 10.1577 38.6566 10.1577 38.0307V14.2309" stroke="#333333" stroke-width="1.5" stroke-linecap="round" stroke-linejoin="round"/>
<path fill-rule="evenodd" clip-rule="evenodd" d="M35.0903 34.6307L37.357 39.1639L39.6236 34.6307V19.8975C39.6236 18.6457 38.6088 17.6309 37.357 17.6309V17.6309C36.1051 17.6309 35.0903 18.6457 35.0903 19.8975V34.6307Z" stroke="#333333" stroke-width="1.5" stroke-linecap="round" stroke-linejoin="round"/>
<path fill-rule="evenodd" clip-rule="evenodd" d="M10.1577 5.16406V5.16406C12.6614 5.16406 14.691 7.19368 14.691 9.69734V9.69734C14.691 12.201 12.6614 14.2306 10.1577 14.2306H28.2908C30.7945 14.2306 32.8241 12.201 32.8241 9.69734V9.69734C32.8241 7.19368 30.7945 5.16406 28.2908 5.16406L10.1577 5.16406Z" stroke="#333333" stroke-width="1.5" stroke-linecap="round" stroke-linejoin="round"/>
<path d="M10.1578 5.16406V5.16406C7.65413 5.16406 5.62451 7.19368 5.62451 9.69734V27.8305" stroke="#333333" stroke-width="1.5" stroke-linecap="round" stroke-linejoin="round"/>
<path d="M18.0903 21.0313L20.357 23.2979L23.7569 19.8979" stroke="#333333" stroke-width="1.5" stroke-linecap="round" stroke-linejoin="round"/>
<path d="M18.0903 28.9644L20.357 31.231L23.7569 27.8311" stroke="#333333" stroke-width="1.5" stroke-linecap="round" stroke-linejoin="round"/>
</svg>